<?xml version="1.0" encoding="iso-8859-1"?>
<!-- Generator: Adobe Illustrator 19.0.0, SVG Export Plug-In . SVG Version: 6.00 Build 0)  -->
<svg version="1.1" id="Capa_1" xmlns="http://www.w3.org/2000/svg" xmlns:xlink="http://www.w3.org/1999/xlink" x="0px" y="0px"
	 viewBox="0 0 511.999 511.999" style="enable-background:new 0 0 511.999 511.999;" xml:space="preserve">
<polygon style="fill:#FFC0AD;" points="275.6,283.019 172.467,283.019 172.467,201.308 137.8,201.308 117.784,378.696 
	137.8,474.385 275.6,474.385 275.6,425.603 265.592,410.597 275.6,395.606 275.6,361.811 265.592,346.809 275.6,331.812 "/>
<g>
	<rect x="227.76" y="331.808" style="fill:#FFDECF;" width="47.841" height="30"/>
	<rect x="227.76" y="395.598" style="fill:#FFDECF;" width="47.841" height="30"/>
	<polygon style="fill:#FFDECF;" points="126.623,201.308 95.777,283.019 63.789,283.019 43.773,378.702 63.789,474.385 
		137.8,474.385 137.8,201.308 	"/>
</g>
<rect y="283.018" style="fill:#4ADEE0;" width="63.789" height="191.37"/>
<polygon style="fill:#FFDECF;" points="236.4,228.977 339.533,228.977 339.533,310.688 374.2,310.688 394.216,133.3 374.2,37.611 
	236.4,37.611 236.4,86.393 246.408,101.399 236.4,116.39 236.4,150.185 246.408,165.187 236.4,180.184 "/>
<g>
	<rect x="236.4" y="150.188" style="fill:#FFC0AD;" width="47.841" height="30"/>
	<rect x="236.4" y="86.398" style="fill:#FFC0AD;" width="47.841" height="30"/>
	<polygon style="fill:#FFC0AD;" points="385.377,310.688 416.223,228.977 448.211,228.977 468.227,133.294 448.211,37.611 
		374.2,37.611 374.2,310.688 	"/>
</g>
<rect x="448.21" y="37.611" style="fill:#1AA8A8;" width="63.789" height="191.37"/>
<g>
</g>
<g>
</g>
<g>
</g>
<g>
</g>
<g>
</g>
<g>
</g>
<g>
</g>
<g>
</g>
<g>
</g>
<g>
</g>
<g>
</g>
<g>
</g>
<g>
</g>
<g>
</g>
<g>
</g>
</svg>
